# xmcd CD database file
#
# Track frame offsets:
#	150
#	13587
#	24685
#	36150
#	49060
#	61087
#	76842
#	88992
#	101417
#	112992
#	131262
#	144277
#	162920
#	174709
#	182809
#	200209
#	212530
#	229770
#	244972
#	255565
#	271105
#	283685
#	294567
#	306932
#
# Disc length: 4283 seconds
#
# Revision: 0
# Processed by: cddbd v1.4PL0 Copyright (c) Steve Scherf et al.
# Submitted via: CDex 1.50
#
DISCID=5310b918
DTITLE=Various Artist - country top 100 #3/4
DYEAR=1970
DGENRE=Country
TTITLE0=Anderson Lynn - rose garden
TTITLE1=Jim Croce - I have to say I love you in a song
TTITLE2=Kenny Rogers - Me and bobby macgee
TTITLE3=Patti Page - Tenessee Waltz
TTITLE4=Freddy fender - Wated days wasted nights
TTITLE5=Billy Jo Spears - Blanket on the ground
TTITLE6=Dolly Parton - Makin' Believ
TTITLE7=Don Williams - You 're my best friend
TTITLE8=Telly Savalas - Some broeken hearts never mend
TTITLE9=Don McLean - American Pie
TTITLE10=Hank Locklin - Please help me I'm falling
TTITLE11=John Denver - Rocky Mountain High
TTITLE12=Brenda Lee - I'm sorry
TTITLE13=Andy Tielman - He lookin' good
TTITLE14=Pussycat - Smile
TTITLE15=Johhny Cash - Ring of Fire
TTITLE16=Trisha Yearwaaod - The song remember when
TTITLE17=Billie Ray Cyrus - Eachy Breaky Heart
TTITLE18=The man with the harmonica - Morricone
TTITLE19=Small Faces - Itchyoo Park
TTITLE20=Don Gibson - Oh Lonesome Me
TTITLE21=Olivia Newton John - I never knew love
TTITLE22=C. Jackson and J. Starling with Emmylou Harris --Don't let our love die
TTITLE23=Lynyrd Skynyrd - Sweet Home Alabama
EXTD=YEAR: 1970
EXTT0=
EXTT1=
EXTT2=
EXTT3=
EXTT4=
EXTT5=
EXTT6=
EXTT7=
EXTT8=
EXTT9=
EXTT10=
EXTT11=
EXTT12=
EXTT13=
EXTT14=
EXTT15=
EXTT16=
EXTT17=
EXTT18=
EXTT19=
EXTT20=
EXTT21=
EXTT22=
EXTT23=
PLAYORDER=
